<svg xmlns="http://www.w3.org/2000/svg" viewBox="0 0 512 512">
  <defs>
    <linearGradient id="heartGradient" x1="0%" y1="0%" x2="100%" y2="100%">
      <stop offset="0%" style="stop-color:#d4a84b;stop-opacity:1" />
      <stop offset="100%" style="stop-color:#b8860b;stop-opacity:1" />
    </linearGradient>
    <linearGradient id="crossGradient" x1="0%" y1="0%" x2="0%" y2="100%">
      <stop offset="0%" style="stop-color:#ffffff;stop-opacity:1" />
      <stop offset="100%" style="stop-color:#f5f2ed;stop-opacity:1" />
    </linearGradient>
  </defs>
  
  <!-- Background circle -->
  <circle cx="256" cy="256" r="240" fill="#1a1715"/>
  
  <!-- Heart shape -->
  <path d="M256 435c-8.5 0-16.6-3.4-22.6-9.4l-155-155c-50-50-50-131.1 0-181.1 24.2-24.2 56.4-37.5 90.6-37.5s66.4 13.3 90.6 37.5l-3.6 3.6 3.6-3.6c24.2-24.2 56.4-37.5 90.6-37.5s66.4 13.3 90.6 37.5c50 50 50 131.1 0 181.1l-155 155c-6 6-14.1 9.4-22.6 9.4l-7.2 0z" 
        fill="url(#heartGradient)" 
        transform="translate(0, 20) scale(0.9)"
        style="transform-origin: center;"/>
  
  <!-- Simple cross in center -->
  <rect x="242" y="180" width="28" height="160" rx="4" fill="url(#crossGradient)"/>
  <rect x="196" y="226" width="120" height="28" rx="4" fill="url(#crossGradient)"/>
</svg>

