<svg xmlns="http://www.w3.org/2000/svg" viewBox="0 0 180 180">
  <defs>
    <linearGradient id="heartGradient" x1="0%" y1="0%" x2="100%" y2="100%">
      <stop offset="0%" style="stop-color:#d4a84b;stop-opacity:1" />
      <stop offset="100%" style="stop-color:#b8860b;stop-opacity:1" />
    </linearGradient>
  </defs>
  
  <!-- Background -->
  <rect width="180" height="180" rx="36" fill="#1a1715"/>
  
  <!-- Heart shape -->
  <path d="M90 150c-3 0-5.8-1.2-7.9-3.3L27.7 92.3c-17.5-17.5-17.5-45.9 0-63.4 8.5-8.5 19.8-13.1 31.7-13.1s23.2 4.7 31.7 13.1L90 27.6l-1.3 1.3 1.3-1.3c8.5-8.5 19.8-13.1 31.7-13.1s23.2 4.7 31.7 13.1c17.5 17.5 17.5 45.9 0 63.4l-54.4 54.4c-2.1 2.1-4.9 3.3-7.9 3.3l-1.1 0z" 
        fill="url(#heartGradient)" 
        transform="translate(0, 7) scale(0.95)"
        style="transform-origin: center;"/>
  
  <!-- Cross -->
  <rect x="82" y="58" width="16" height="70" rx="3" fill="white"/>
  <rect x="60" y="80" width="60" height="16" rx="3" fill="white"/>
</svg>

